<?xml version="1.0" standalone="no"?>
<!DOCTYPE svg PUBLIC "-//W3C//DTD SVG 20010904//EN"
 "http://www.w3.org/TR/2001/REC-SVG-20010904/DTD/svg10.dtd">
<svg version="1.0" xmlns="http://www.w3.org/2000/svg"
 width="682.000000pt" height="682.000000pt" viewBox="0 0 682.000000 682.000000"
 preserveAspectRatio="xMidYMid meet">

<g transform="translate(0.000000,682.000000) scale(0.100000,-0.100000)"
fill="#000000" stroke="none">
<path d="M1038 4390 c-357 -65 -578 -381 -528 -756 44 -333 307 -563 643 -564
190 0 381 76 505 201 l42 43 0 243 0 243 -230 0 -231 0 3 -102 3 -103 108 -3
107 -3 0 -68 c0 -68 0 -68 -39 -95 -135 -94 -345 -99 -478 -11 -61 40 -92 79
-130 160 -24 53 -27 72 -27 155 1 130 26 193 108 276 79 78 145 105 261 105
116 0 215 -39 279 -110 11 -11 23 -21 28 -21 5 0 55 37 113 82 118 94 117 87
29 167 -116 106 -252 160 -419 166 -55 2 -121 0 -147 -5z"/>
<path d="M4595 4394 c-112 -18 -228 -72 -295 -137 -64 -63 -94 -134 -98 -235
-5 -109 12 -154 83 -221 68 -65 119 -88 315 -145 240 -70 306 -113 303 -196
-4 -82 -44 -121 -145 -140 -95 -18 -294 27 -413 94 l-45 25 -14 -22 c-77 -123
-116 -188 -116 -196 0 -15 60 -48 157 -85 281 -109 620 -79 765 66 109 109
135 294 61 430 -59 109 -161 164 -468 254 -66 19 -137 46 -157 60 -33 21 -38
29 -38 62 0 106 103 159 256 133 80 -14 207 -62 259 -96 20 -14 38 -25 39 -25
7 0 126 198 126 208 0 25 -168 113 -272 142 -72 20 -242 33 -303 24z"/>
<path d="M3057 4373 c-4 -3 -7 -161 -7 -350 l0 -343 95 0 95 0 0 250 0 250
250 0 250 0 0 100 0 100 -338 0 c-186 0 -342 -3 -345 -7z"/>
<path d="M1840 3730 l0 -640 140 0 140 0 0 255 0 255 280 0 280 0 0 -255 0
-255 140 0 140 0 0 640 0 640 -140 0 -140 0 0 -260 0 -260 -280 0 -280 0 0
260 0 260 -140 0 -140 0 0 -640z"/>
<path d="M5250 4250 l0 -120 178 -2 177 -3 3 -517 2 -518 140 0 140 0 2 518 3
517 178 3 177 2 0 120 0 120 -500 0 -500 0 0 -120z"/>
<path d="M3900 3540 l0 -250 -250 0 -250 0 0 -100 0 -100 345 0 345 0 0 350 0
350 -95 0 -95 0 0 -250z"/>
<path d="M3142 2975 c-86 -27 -160 -98 -182 -176 -15 -51 -12 -139 6 -192 18
-52 93 -129 152 -155 24 -10 66 -16 122 -16 100 0 155 20 215 79 55 56 75 106
75 196 0 65 -4 85 -28 130 -63 120 -219 178 -360 134z m196 -132 c53 -39 74
-82 70 -141 -10 -117 -119 -181 -233 -137 -132 50 -139 233 -10 291 43 20 138
13 173 -13z"/>
<path d="M530 2711 l0 -271 115 0 c141 0 202 12 263 54 70 49 104 110 110 199
7 120 -39 200 -151 259 -37 20 -60 23 -189 26 l-148 4 0 -271z m243 158 c87
-24 143 -117 118 -198 -24 -83 -80 -121 -176 -121 l-55 0 0 165 0 165 38 0
c20 0 54 -5 75 -11z"/>
<path d="M1070 2710 l0 -270 200 0 200 0 0 55 0 55 -135 0 -135 0 0 55 0 55
120 0 120 0 0 50 0 50 -120 0 -120 0 0 60 0 60 135 0 135 0 0 50 0 50 -200 0
-200 0 0 -270z"/>
<path d="M1514 2963 c4 -10 53 -132 109 -271 l102 -252 75 2 74 3 108 264 c59
145 108 266 108 268 0 1 -30 3 -67 3 l-68 0 -75 -190 c-41 -104 -78 -190 -81
-190 -3 0 -39 84 -80 188 l-74 187 -69 3 c-62 3 -68 1 -62 -15z"/>
<path d="M2130 2710 l0 -270 201 0 200 0 -3 53 -3 52 -132 3 -133 3 0 54 0 55
120 0 120 0 0 50 0 50 -120 0 -120 0 0 60 0 60 135 0 135 0 0 50 0 50 -200 0
-200 0 0 -270z"/>
<path d="M2590 2710 l0 -270 175 0 175 0 0 55 0 55 -110 0 -110 0 0 215 0 215
-65 0 -65 0 0 -270z"/>
<path d="M3580 2710 l0 -270 65 0 65 0 0 100 0 100 68 0 c113 0 182 32 217
101 18 33 20 102 4 132 -43 83 -109 107 -291 107 l-128 0 0 -270z m289 150
c26 -13 36 -52 22 -79 -13 -24 -68 -41 -133 -41 l-48 0 0 71 0 72 69 -6 c39
-3 79 -11 90 -17z"/>
<path d="M4060 2710 l0 -270 65 0 65 0 0 171 0 171 91 -138 c50 -77 94 -143
99 -148 5 -5 50 54 107 140 l98 149 3 -172 2 -173 60 0 60 0 0 270 0 270 -70
0 -70 0 -86 -132 c-47 -73 -89 -137 -93 -141 -4 -4 -48 55 -97 133 l-89 140
-72 0 -73 0 0 -270z"/>
<path d="M4772 2713 l3 -268 198 -3 197 -2 0 55 0 55 -135 0 -135 0 0 55 0 55
125 0 125 0 0 50 0 49 -122 3 -123 3 -3 58 -3 57 136 0 135 0 0 50 0 50 -200
0 -200 0 2 -267z"/>
<path d="M5230 2710 l0 -270 65 0 65 0 2 181 3 180 125 -180 125 -180 73 -1
72 0 0 270 0 270 -65 0 -65 0 -2 -177 -3 -176 -123 176 -124 177 -74 0 -74 0
0 -270z"/>
<path d="M5800 2930 l0 -49 78 -3 77 -3 3 -217 2 -218 60 0 60 0 2 218 3 217
83 3 82 3 0 49 0 50 -225 0 -225 0 0 -50z"/>
</g>
</svg>
